<?xml version="1.0" encoding="utf-8"?>
<!-- Generator: Adobe Illustrator 16.0.0, SVG Export Plug-In . SVG Version: 6.00 Build 0)  -->
<!DOCTYPE svg PUBLIC "-//W3C//DTD SVG 1.1//EN" "http://www.w3.org/Graphics/SVG/1.1/DTD/svg11.dtd">
<svg version="1.1" id="Layer_1" focusable="false" xmlns="http://www.w3.org/2000/svg" xmlns:xlink="http://www.w3.org/1999/xlink"
	 x="0px" y="0px" width="841.89px" height="595.281px" viewBox="0 0 841.89 595.281" enable-background="new 0 0 841.89 595.281"
	 xml:space="preserve">
<path fill="#FFFFFF" d="M710.447,514.708L594.529,398.791c-5.23-5.23-12.324-8.139-19.764-8.139h-18.953
	c32.09-41.041,51.158-92.664,51.158-148.819C606.97,108.243,498.726,0,365.137,0C231.548,0,123.305,108.243,123.305,241.833
	c0,133.589,108.243,241.833,241.833,241.833c56.157,0,107.777-19.068,148.818-51.156v18.951c0,7.439,2.908,14.533,8.139,19.764
	l115.918,115.918c10.93,10.929,28.604,10.929,39.414,0l32.902-32.903C721.259,543.31,721.259,525.636,710.447,514.708z
	 M365.137,390.652c-82.2,0-148.82-66.504-148.82-148.819c0-82.2,66.504-148.82,148.82-148.82c82.2,0,148.819,66.504,148.819,148.82
	C513.957,324.033,447.453,390.652,365.137,390.652z"/>
</svg>
