<?xml version="1.0" encoding="utf-8"?>
<!-- Generator: Adobe Illustrator 16.0.0, SVG Export Plug-In . SVG Version: 6.00 Build 0)  -->
<!DOCTYPE svg PUBLIC "-//W3C//DTD SVG 1.1//EN" "http://www.w3.org/Graphics/SVG/1.1/DTD/svg11.dtd">
<svg version="1.1" id="Layer_1" xmlns="http://www.w3.org/2000/svg" xmlns:xlink="http://www.w3.org/1999/xlink" x="0px" y="0px"
	 width="204.878px" height="65.366px" viewBox="0 0 204.878 65.366" enable-background="new 0 0 204.878 65.366"
	 xml:space="preserve">
<path fill="#FFFFFF" d="M71.567,25.797l10.417,20.743H66.881l4.686,6.426h10.286h2.905h7.806L71.567,10.973L50.57,52.966h7.806
	L71.567,25.797z"/>
<path fill="#FFFFFF" d="M94.157,17.561l21.068,21.352V17.561h5.29v34.283v-0.046v0.092L99.401,30.539v16.001h-5.244V17.561z"/>
<path fill="#FFFFFF" d="M126.818,17.607h10.746c4.465,0,8.264,1.582,11.396,4.745c3.163,3.163,4.745,6.962,4.745,11.397
	c0,4.465-1.582,8.265-4.745,11.396c-3.133,3.163-6.932,4.744-11.396,4.744h-10.746V17.607z M137.564,44.495
	c2.945,0,5.473-1.038,7.582-3.116c2.109-2.141,3.163-4.683,3.163-7.629c0-2.947-1.054-5.474-3.163-7.583
	c-2.109-2.109-4.637-3.163-7.582-3.163h-5.396v21.491H137.564z"/>
<path fill="#FFFFFF" d="M176.012,20.954h-21.09l-5.023-6.425h39.239l-25.034,32.012h28.49l-5.18,6.426h-36.492L176.012,20.954z"/>
<path fill="#FFFFFF" d="M49.97,24.818c0-1.392-0.272-2.716-0.815-3.973c-0.543-1.256-1.282-2.351-2.216-3.286
	c-0.935-0.934-2.038-1.672-3.311-2.216c-1.273-0.543-2.59-0.815-3.947-0.815H20.528H11.73l4.621,5.909h23.33
	c0.577,0,1.137,0.11,1.681,0.331c0.542,0.222,1.019,0.535,1.426,0.942c0.407,0.408,0.721,0.884,0.942,1.426
	c0.22,0.544,0.331,1.104,0.331,1.681c0,0.611-0.11,1.189-0.331,1.732c-0.222,0.543-0.535,1.019-0.942,1.426
	c-0.408,0.408-0.884,0.73-1.426,0.968c-0.544,0.238-1.104,0.356-1.681,0.356H26.386v-5.713h-5.858V49.88h19.153
	c1.392,0,2.716-0.271,3.973-0.816c1.256-0.543,2.351-1.281,3.286-2.215c0.934-0.934,1.672-2.029,2.216-3.285
	c0.543-1.257,0.815-2.581,0.815-3.974c0-2.921-1.037-5.382-3.107-7.386C48.934,30.167,49.97,27.705,49.97,24.818z M43.73,41.271
	c-0.222,0.544-0.535,1.02-0.942,1.427c-0.408,0.407-0.884,0.722-1.426,0.942c-0.544,0.221-1.104,0.33-1.681,0.33H26.386v-8.812
	h13.295c0.611,0,1.188,0.119,1.731,0.356c0.543,0.238,1.01,0.561,1.401,0.969c0.39,0.406,0.695,0.883,0.917,1.426
	c0.22,0.543,0.331,1.104,0.331,1.681S43.951,40.728,43.73,41.271z"/>
</svg>
